<svg height="496pt" viewBox="0 0 496 496" width="496pt" xmlns="http://www.w3.org/2000/svg"><path d="m455.992188 216h32v32h-32zm0 0" fill="#fcd770"/><path d="m71.992188 216v32h-24v54.238281c4.878906 4.402344 8 10.722657 8 17.761719 0 14.640625-13.121094 26.238281-28.320313 23.601562-9.679687-1.679687-17.601563-9.679687-19.28125-19.363281-1.597656-8.796875 1.761719-16.71875 7.601563-22v-70.238281c0-8.800781 7.199218-16 16-16zm0 0" fill="#fcd770"/><path d="m471.992188 405.28125v50.71875c0 17.679688-14.320313 32-32 32h-352c-17.679688 0-32-14.320312-32-32v-50.71875c0-8.480469 3.359374-16.640625 9.359374-22.640625l22.640626-22.640625h352l22.640624 22.640625c6 6 9.359376 14.160156 9.359376 22.640625zm0 0" fill="#838f9b"/><path d="m439.992188 264v96h-352v-96h64c10.71875 21.519531 27.679687 38.71875 48 49.761719 9.917968 5.4375 20.71875 9.4375 32 11.757812v.082031c7.679687 1.597657 15.519531 2.398438 23.519531 2.398438h16.960937c8 0 15.839844-.800781 23.519532-2.398438v-.082031c11.277343-2.320312 22.078124-6.320312 32-11.757812 20.320312-11.042969 37.277343-28.242188 48-49.761719zm0 0" fill="#aab2bd"/><g fill="#d3a06c"><path d="m231.992188 264v61.519531c-11.28125-2.320312-22.082032-6.320312-32-11.757812v-49.761719zm0 0"/><path d="m199.992188 264v49.761719c-20.320313-11.042969-37.28125-28.242188-48-49.761719zm0 0"/><path d="m327.992188 264h48c-10.722657 21.519531-27.679688 38.71875-48 49.761719zm0 0"/><path d="m295.992188 325.519531v.082031c-7.679688 1.597657-15.519532 2.398438-23.519532 2.398438h-8.480468v-64h32zm0 0"/><path d="m263.992188 264v64h-8.480469c-8 0-15.839844-.800781-23.519531-2.398438v-61.601562zm0 0"/><path d="m327.992188 264v49.761719c-9.921876 5.4375-20.722657 9.4375-32 11.757812v-61.519531zm0 0"/></g><path d="m407.992188 200h32c8.800781 0 16 7.199219 16 16v32c0 8.800781-7.199219 16-16 16h-48v-64zm0 0" fill="#ffeaa7"/><path d="m391.992188 200v64h-256v-64zm0 0" fill="#ffeaa7"/><path d="m135.992188 200v64h-48c-8.800782 0-16-7.199219-16-16v-32c0-8.800781 7.199218-16 16-16zm0 0" fill="#ffeaa7"/><path d="m439.992188 152v48h-32v-64h16c8.800781 0 16 7.199219 16 16zm0 0" fill="#838f9b"/><path d="m119.992188 136v64h-32v-48c0-8.800781 7.199218-16 16-16zm0 0" fill="#838f9b"/><path d="m407.992188 136v64h-288v-192h240v48h48zm0 0" fill="#e6e9ed"/><path d="m407.992188 56h-48v-48zm0 0" fill="#fcd770"/><path d="m462.519531 256h33.472657v-48h-33.472657c-2.417969-6.777344-7.753906-12.113281-14.527343-14.527344v-41.472656c0-13.230469-10.769532-24-24-24h-8v-75.3125l-52.6875-52.6875h-251.3125v128h-8c-13.234376 0-24 10.769531-24 24v41.472656c-6.777344 2.414063-12.113282 7.75-14.527344 14.527344h-33.472656c-13.234376 0-24 10.769531-24 24v66.953125c-6.417969 7.269531-9.199219 17-7.503907 26.6875 2.269531 12.984375 12.886719 23.617187 25.832031 25.863281 1.871094.328125 3.75.488282 5.613282.488282 7.53125 0 14.832031-2.609376 20.640625-7.503907 7.257812-6.089843 11.417969-15.015625 11.417969-24.488281 0-7.726562-2.871094-15.207031-8-21.039062v-42.960938h9.472656c2.414062 6.777344 7.75 12.113281 14.527344 14.527344v86.160156l-20.28125 20.28125c-7.550782 7.550781-11.71875 17.597656-11.71875 28.289062v50.742188c0 22.054688 17.941406 40 40 40h352c22.054687 0 40-17.945312 40-40v-50.742188c0-10.691406-4.167969-20.738281-11.722657-28.289062l-20.277343-20.28125v-86.160156c6.773437-2.414063 12.109374-7.75 14.527343-14.527344zm-30.527343 96h-336v-80h51.246093c21.800781 39.574219 62.808594 64 108.304688 64h16.886719c45.496093 0 86.503906-24.425781 108.304687-64h51.257813zm-48-144v48h-240v-48zm-16-180.6875 20.6875 20.6875h-20.6875zm-202.089844 244.6875h26.089844v27.359375c-10.128907-7.398437-18.96875-16.625-26.089844-27.359375zm42.089844 0h16v43.296875c-5.519532-1.671875-10.863282-3.792969-16-6.3125zm32 0h16v48h-.449219c-5.261719 0-10.457031-.382812-15.550781-1.121094zm32 0h16v46.878906c-5.097657.738282-10.289063 1.121094-15.550782 1.121094h-.449218zm32 0h16v36.984375c-5.136719 2.519531-10.480469 4.640625-16 6.3125zm32 0h26.085937c-7.125 10.734375-15.964844 19.960938-26.085937 27.359375zm112-24c0 4.414062-3.585938 8-8 8h-40v-48h40c4.414062 0 8 3.585938 8 8zm32-8h-16v-16h16zm-56-96c4.414062 0 8 3.585938 8 8v40h-16v-48zm-72-128v48h48v128h-272v-176zm-248 128h8v48h-16v-40c0-4.414062 3.582031-8 8-8zm-24 72c0-4.414062 3.582031-8 8-8h40v48h-40c-4.417969 0-8-3.585938-8-8zm-40 24v65.785156l2.640624 2.382813c3.453126 3.113281 5.359376 7.320312 5.359376 11.832031 0 4.734375-2.082032 9.191406-5.710938 12.246094-3.671875 3.089844-8.371094 4.339844-13.226562 3.496094-6.3125-1.09375-11.695313-6.496094-12.808594-12.855469-.976563-5.550781.882812-10.910157 5.097656-14.710938l2.648438-2.382812v-73.792969c0-4.414062 3.582031-8 8-8h32v16zm416.96875 148.28125c4.535156 4.535156 7.03125 10.558594 7.03125 16.976562v50.742188c0 13.230469-10.769532 24-24 24h-352c-13.234376 0-24-10.769531-24-24v-50.742188c0-6.417968 2.496093-12.449218 7.03125-16.976562l20.28125-20.28125h345.375zm0 0"/><path d="m239.992188 448h16v16h-16zm0 0"/><path d="m223.992188 416h16v16h-16zm0 0"/><path d="m271.992188 448h16v16h-16zm0 0"/><path d="m255.992188 416h16v16h-16zm0 0"/><path d="m303.992188 448h16v16h-16zm0 0"/><path d="m287.992188 416h16v16h-16zm0 0"/><path d="m335.992188 448h16v16h-16zm0 0"/><path d="m319.992188 416h16v16h-16zm0 0"/><path d="m367.992188 448h16v16h-16zm0 0"/><path d="m351.992188 416h16v16h-16zm0 0"/><path d="m399.992188 448h16v16h-16zm0 0"/><path d="m383.992188 416h16v16h-16zm0 0"/><path d="m111.992188 448h16v16h-16zm0 0"/><path d="m95.992188 416h16v16h-16zm0 0"/><path d="m143.992188 448h16v16h-16zm0 0"/><path d="m127.992188 416h16v16h-16zm0 0"/><path d="m175.992188 448h16v16h-16zm0 0"/><path d="m159.992188 416h16v16h-16zm0 0"/><path d="m207.992188 448h16v16h-16zm0 0"/><path d="m191.992188 416h16v16h-16zm0 0"/><path d="m223.992188 384h16v16h-16zm0 0"/><path d="m255.992188 384h16v16h-16zm0 0"/><path d="m287.992188 384h16v16h-16zm0 0"/><path d="m319.992188 384h16v16h-16zm0 0"/><path d="m351.992188 384h16v16h-16zm0 0"/><path d="m383.992188 384h16v16h-16zm0 0"/><path d="m415.992188 416h16v16h-16zm0 0"/><path d="m415.992188 384h16v16h-16zm0 0"/><path d="m95.992188 384h16v16h-16zm0 0"/><path d="m127.992188 384h16v16h-16zm0 0"/><path d="m159.992188 384h16v16h-16zm0 0"/><path d="m191.992188 384h16v16h-16zm0 0"/><path d="m143.992188 32h16v16h-16zm0 0"/><path d="m175.992188 32h160v16h-160zm0 0"/><path d="m143.992188 64h192v16h-192zm0 0"/><path d="m143.992188 96h240v16h-240zm0 0"/><path d="m143.992188 128h240v16h-240zm0 0"/><path d="m143.992188 160h240v16h-240zm0 0"/><path d="m399.992188 320h16v16h-16zm0 0"/><path d="m399.992188 288h16v16h-16zm0 0"/><path d="m111.992188 320h16v16h-16zm0 0"/><path d="m111.992188 288h16v16h-16zm0 0"/></svg>